<mxfile host="65bd71144e">
    <diagram id="MdUKmDmxNSHRmhWZcy5G" name="Page-1">
        <mxGraphModel dx="710" dy="1711" grid="1" gridSize="10" guides="1" tooltips="1" connect="1" arrows="1" fold="1" page="1" pageScale="1" pageWidth="850" pageHeight="1100" math="0" shadow="0">
            <root>
                <mxCell id="0"/>
                <mxCell id="1" parent="0"/>
                <mxCell id="49" value="Inversor" style="swimlane;fontStyle=1;align=center;verticalAlign=top;childLayout=stackLayout;horizontal=1;startSize=26;horizontalStack=0;resizeParent=1;resizeParentMax=0;resizeLast=0;collapsible=1;marginBottom=0;whiteSpace=wrap;html=1;" parent="1" vertex="1">
                    <mxGeometry x="200" y="-650" width="200" height="100" as="geometry"/>
                </mxCell>
                <mxCell id="52" value="&lt;div&gt;+&amp;lt;&amp;lt;create&amp;gt;&amp;gt; Inversor()&lt;/div&gt;+agregarInverson(Inversion):void&lt;div&gt;&lt;span style=&quot;color: rgb(63, 63, 63); background-color: transparent;&quot;&gt;+quitarInversion(Inversion):void&lt;/span&gt;&lt;/div&gt;&lt;div&gt;+inversionActual(): Real&lt;/div&gt;" style="text;strokeColor=none;fillColor=none;align=left;verticalAlign=top;spacingLeft=4;spacingRight=4;overflow=hidden;rotatable=0;points=[[0,0.5],[1,0.5]];portConstraint=eastwest;whiteSpace=wrap;html=1;" parent="49" vertex="1">
                    <mxGeometry y="26" width="200" height="74" as="geometry"/>
                </mxCell>
                <mxCell id="58" value="&lt;p style=&quot;margin:0px;margin-top:4px;text-align:center;&quot;&gt;&lt;i&gt;&amp;lt;&amp;lt;Interface&amp;gt;&amp;gt;&lt;/i&gt;&lt;br&gt;&lt;b&gt;InversiÃ³n&lt;/b&gt;&lt;/p&gt;&lt;hr size=&quot;1&quot; style=&quot;border-style:solid;&quot;&gt;&lt;p style=&quot;margin:0px;margin-left:4px;&quot;&gt;+ valorActual(): Real&lt;br&gt;&lt;/p&gt;" style="verticalAlign=top;align=left;overflow=fill;html=1;whiteSpace=wrap;" parent="1" vertex="1">
                    <mxGeometry x="540" y="-620" width="190" height="66" as="geometry"/>
                </mxCell>
                <mxCell id="63" value="Plazo Fijo" style="swimlane;fontStyle=1;align=center;verticalAlign=top;childLayout=stackLayout;horizontal=1;startSize=26;horizontalStack=0;resizeParent=1;resizeParentMax=0;resizeLast=0;collapsible=1;marginBottom=0;whiteSpace=wrap;html=1;" parent="1" vertex="1">
                    <mxGeometry x="580" y="-420" width="280" height="230" as="geometry"/>
                </mxCell>
                <mxCell id="64" value="-valorInicial: Real&lt;div&gt;-tasaDeInteres: Real&lt;/div&gt;&lt;div&gt;-fechaConstitucion: Date&lt;/div&gt;" style="text;strokeColor=none;fillColor=none;align=left;verticalAlign=top;spacingLeft=4;spacingRight=4;overflow=hidden;rotatable=0;points=[[0,0.5],[1,0.5]];portConstraint=eastwest;whiteSpace=wrap;html=1;" parent="63" vertex="1">
                    <mxGeometry y="26" width="280" height="54" as="geometry"/>
                </mxCell>
                <mxCell id="65" value="" style="line;strokeWidth=1;fillColor=none;align=left;verticalAlign=middle;spacingTop=-1;spacingLeft=3;spacingRight=3;rotatable=0;labelPosition=right;points=[];portConstraint=eastwest;strokeColor=inherit;" parent="63" vertex="1">
                    <mxGeometry y="80" width="280" height="8" as="geometry"/>
                </mxCell>
                <mxCell id="66" value="+ valorActual():Real&lt;div&gt;+&amp;lt;&amp;lt;create&amp;gt;&amp;gt;PlazoFijo(montoIni: Real, tasa: Real)&lt;/div&gt;&lt;div&gt;+setValorInicial(valorInicial: Integer)&lt;/div&gt;&lt;div&gt;+setTasaDeInteres(tasa: Real)&lt;/div&gt;&lt;div&gt;+setFechaConstitucion(fecha)&lt;/div&gt;&lt;div&gt;+getValorInicial():Real&lt;/div&gt;&lt;div&gt;+getTasaDeInteres(): Real&lt;/div&gt;&lt;div&gt;+getFechaConstitucion():Date&lt;/div&gt;&lt;div&gt;&lt;br&gt;&lt;/div&gt;" style="text;strokeColor=none;fillColor=none;align=left;verticalAlign=top;spacingLeft=4;spacingRight=4;overflow=hidden;rotatable=0;points=[[0,0.5],[1,0.5]];portConstraint=eastwest;whiteSpace=wrap;html=1;" parent="63" vertex="1">
                    <mxGeometry y="88" width="280" height="142" as="geometry"/>
                </mxCell>
                <mxCell id="76" style="edgeStyle=none;html=1;entryX=0;entryY=0.5;entryDx=0;entryDy=0;exitX=1;exitY=0.5;exitDx=0;exitDy=0;" parent="1" source="52" target="58" edge="1">
                    <mxGeometry relative="1" as="geometry">
                        <mxPoint x="270" y="-520" as="sourcePoint"/>
                        <mxPoint x="290" y="-415" as="targetPoint"/>
                        <Array as="points"/>
                    </mxGeometry>
                </mxCell>
                <mxCell id="77" value="tiene&amp;nbsp;&lt;div&gt;inversiones&lt;/div&gt;" style="edgeLabel;html=1;align=center;verticalAlign=middle;resizable=0;points=[];" parent="76" vertex="1" connectable="0">
                    <mxGeometry x="-0.0039" relative="1" as="geometry">
                        <mxPoint as="offset"/>
                    </mxGeometry>
                </mxCell>
                <mxCell id="78" value="0..*" style="edgeLabel;html=1;align=center;verticalAlign=middle;resizable=0;points=[];" parent="76" vertex="1" connectable="0">
                    <mxGeometry x="0.6627" y="2" relative="1" as="geometry">
                        <mxPoint x="13" y="-12" as="offset"/>
                    </mxGeometry>
                </mxCell>
                <mxCell id="79" value="1" style="edgeLabel;html=1;align=center;verticalAlign=middle;resizable=0;points=[];" parent="76" vertex="1" connectable="0">
                    <mxGeometry x="-0.7959" y="1" relative="1" as="geometry">
                        <mxPoint x="-3" y="-9" as="offset"/>
                    </mxGeometry>
                </mxCell>
                <mxCell id="80" value="Accion" style="swimlane;fontStyle=1;align=center;verticalAlign=top;childLayout=stackLayout;horizontal=1;startSize=26;horizontalStack=0;resizeParent=1;resizeParentMax=0;resizeLast=0;collapsible=1;marginBottom=0;whiteSpace=wrap;html=1;" parent="1" vertex="1">
                    <mxGeometry x="260" y="-420" width="280" height="230" as="geometry"/>
                </mxCell>
                <mxCell id="81" value="-valorUnitario: Real&lt;div&gt;-cantidad: Integer&lt;/div&gt;&lt;div&gt;-ticker: String&lt;/div&gt;" style="text;strokeColor=none;fillColor=none;align=left;verticalAlign=top;spacingLeft=4;spacingRight=4;overflow=hidden;rotatable=0;points=[[0,0.5],[1,0.5]];portConstraint=eastwest;whiteSpace=wrap;html=1;" parent="80" vertex="1">
                    <mxGeometry y="26" width="280" height="54" as="geometry"/>
                </mxCell>
                <mxCell id="82" value="" style="line;strokeWidth=1;fillColor=none;align=left;verticalAlign=middle;spacingTop=-1;spacingLeft=3;spacingRight=3;rotatable=0;labelPosition=right;points=[];portConstraint=eastwest;strokeColor=inherit;" parent="80" vertex="1">
                    <mxGeometry y="80" width="280" height="8" as="geometry"/>
                </mxCell>
                <mxCell id="83" value="+valorActual():Real&lt;div&gt;+&amp;lt;&amp;lt;create&amp;gt;&amp;gt;Accion(valorUnitario: Real, cantidad: integer,ticker: string)&lt;/div&gt;&lt;div&gt;+setValorUnitario(unitario: Real)&lt;/div&gt;&lt;div&gt;+setCantidad(cant: Integer)&lt;/div&gt;&lt;div&gt;+setTicker(ticker: String)&lt;/div&gt;&lt;div&gt;+getValorUnitario():Real&lt;/div&gt;&lt;div&gt;+getCantidad():Integer&lt;/div&gt;&lt;div&gt;+getTicker(): String&lt;/div&gt;" style="text;strokeColor=none;fillColor=none;align=left;verticalAlign=top;spacingLeft=4;spacingRight=4;overflow=hidden;rotatable=0;points=[[0,0.5],[1,0.5]];portConstraint=eastwest;whiteSpace=wrap;html=1;" parent="80" vertex="1">
                    <mxGeometry y="88" width="280" height="142" as="geometry"/>
                </mxCell>
                <mxCell id="84" value="" style="endArrow=block;dashed=1;endFill=0;endSize=12;html=1;entryX=0.5;entryY=1;entryDx=0;entryDy=0;exitX=0.5;exitY=0;exitDx=0;exitDy=0;" edge="1" parent="1" source="63" target="58">
                    <mxGeometry width="160" relative="1" as="geometry">
                        <mxPoint x="280" y="-370" as="sourcePoint"/>
                        <mxPoint x="440" y="-370" as="targetPoint"/>
                    </mxGeometry>
                </mxCell>
                <mxCell id="85" value="" style="endArrow=block;dashed=1;endFill=0;endSize=12;html=1;entryX=0.442;entryY=0.994;entryDx=0;entryDy=0;entryPerimeter=0;exitX=0.5;exitY=0;exitDx=0;exitDy=0;" edge="1" parent="1" source="80" target="58">
                    <mxGeometry width="160" relative="1" as="geometry">
                        <mxPoint x="250" y="-370" as="sourcePoint"/>
                        <mxPoint x="410" y="-370" as="targetPoint"/>
                    </mxGeometry>
                </mxCell>
            </root>
        </mxGraphModel>
    </diagram>
</mxfile>